<svg width="375" height="212" fill="none" xmlns="http://www.w3.org/2000/svg"><g clip-path="url(#a)" fill="#ECD979"><path d="M385.199 214.582h-14.097v-14.306h14.097v14.306zM201.932 214.582h-14.097v-14.306h14.097v14.306z"/><path d="M187.838 214.582H173.74v-14.306h14.098v14.306z"/><path d="M173.741 214.582h-14.097v-14.306h14.097v14.306zM342.907 200.276H328.81v-14.305h14.097v14.305zM328.809 200.276h-14.097v-14.305h14.097v14.305zM314.712 200.276h-14.098v-14.305h14.098v14.305zM286.516 200.276h-14.097v-14.305h14.097v14.305zM272.419 200.276h-14.098v-14.305h14.098v14.305z"/><path d="M187.838 200.276H173.74v-14.305h14.098v14.305zM103.253 200.276H89.155v-14.305h14.098v14.305zM89.155 200.276H75.058v-14.305h14.097v14.305zM60.96 200.276H46.864v-14.305h14.098v14.305zM46.863 200.276H32.766v-14.305h14.097v14.305zM32.765 200.276H18.668v-14.305h14.097v14.305zM357.004 185.971h-14.098v-14.305h14.098v14.305z"/><path d="M342.907 185.971H328.81v-14.305h14.097v14.305zM328.809 185.971h-14.097v-14.305h14.097v14.305zM272.419 185.971h-14.098v-14.306h14.098v14.306z"/><path d="M258.321 185.971h-14.097v-14.305h14.097v14.305zM117.35 185.971h-14.097v-14.306h14.097v14.306zM103.253 185.971H89.155v-14.305h14.098v14.305zM46.863 185.971H32.766v-14.305h14.097v14.305zM32.765 185.971H18.668v-14.306h14.097v14.306z"/><path d="M18.669 185.971H4.57v-14.306H18.67v14.306zM371.101 171.666h-14.097V157.36h14.097v14.306zM357.004 171.666h-14.098V157.36h14.098v14.306z"/><path d="M342.907 171.666H328.81V157.36h14.097v14.306zM300.614 171.666h-14.097V157.36h14.097v14.306zM258.321 171.666h-14.097V157.36h14.097v14.306zM244.224 171.666h-14.097V157.36h14.097v14.306zM131.448 171.666h-14.097V157.36h14.097v14.306zM117.35 171.666h-14.097V157.36h14.097v14.306zM75.058 171.666H60.961V157.36h14.097v14.306zM32.765 171.666H18.668V157.36h14.097v14.306z"/><path d="M18.669 171.666H4.57V157.36H18.67v14.306z"/><path d="M4.571 171.666H-9.526V157.36H4.57v14.306zM314.712 157.36h-14.098v-14.306h14.098v14.306zM300.614 157.36h-14.097v-14.306h14.097v14.306zM244.224 157.36h-14.097v-14.306h14.097v14.306z"/><path d="M230.127 157.36h-14.098v-14.306h14.098v14.306zM145.546 157.36h-14.098v-14.306h14.098v14.306z"/><path d="M131.448 157.36h-14.097v-14.306h14.097v14.306zM75.058 157.36H60.961v-14.306h14.097v14.306z"/><path d="M60.96 157.36H46.864v-14.306h14.098v14.306zM328.809 143.054h-14.097v-14.305h14.097v14.305zM314.712 143.054h-14.098v-14.305h14.098v14.305zM300.614 143.055h-14.097v-14.306h14.097v14.306zM230.127 143.054h-14.098v-14.305h14.098v14.305zM216.029 143.054h-14.097v-14.305h14.097v14.305zM159.642 143.055h-14.097v-14.306h14.097v14.306z"/><path d="M145.546 143.055h-14.098v-14.306h14.098v14.306zM75.058 143.054H60.961v-14.305h14.097v14.305z"/><path d="M60.96 143.054H46.864v-14.305h14.098v14.305zM46.863 143.054H32.766v-14.305h14.097v14.305zM328.809 128.749h-14.097v-14.305h14.097v14.305zM314.712 128.749h-14.098v-14.305h14.098v14.305zM216.029 128.749h-14.097v-14.305h14.097v14.305zM201.932 128.749h-14.097v-14.305h14.097v14.305zM173.741 128.749h-14.097v-14.305h14.097v14.305zM159.643 128.749h-14.097v-14.305h14.097v14.305zM60.96 128.749H46.864v-14.305h14.098v14.305zM46.863 128.749H32.766v-14.305h14.097v14.305z"/><path d="M328.809 114.444h-14.097v-14.306h14.097v14.306zM201.932 114.444h-14.097v-14.306h14.097v14.306zM173.741 114.444h-14.097v-14.306h14.097v14.306zM46.863 114.444H32.766v-14.306h14.097v14.306zM385.199 85.832h-14.097V71.528h14.097v14.305zM258.321 85.832h-14.097V71.528h14.097v14.305zM244.224 85.832h-14.097V71.528h14.097v14.305z"/><path d="M230.127 85.832h-14.098V71.528h14.098v14.305zM145.546 85.832h-14.098V71.528h14.098v14.305z"/><path d="M131.448 85.832h-14.097V71.528h14.097v14.305zM117.35 85.832h-14.097V71.528h14.097v14.305zM385.199 71.527h-14.097V57.222h14.097v14.305zM371.101 71.527h-14.097V57.22h14.097v14.306zM272.419 71.527h-14.098V57.222h14.098v14.305z"/><path d="M258.321 71.527h-14.097V57.22h14.097v14.306zM244.224 71.527h-14.097V57.22h14.097v14.306zM201.932 71.527h-14.097V57.22h14.097v14.306zM173.741 71.527h-14.097V57.22h14.097v14.306zM131.448 71.527h-14.097V57.222h14.097v14.305zM117.35 71.527h-14.097V57.222h14.097v14.305zM103.253 71.527H89.155V57.22h14.098v14.306zM4.57 71.527H-9.527V57.222H4.57v14.305zM385.199 57.222h-14.097V42.916h14.097v14.306zM371.101 57.222h-14.097V42.916h14.097v14.306zM357.004 57.222h-14.098V42.916h14.098v14.306zM286.516 57.222h-14.097V42.916h14.097v14.306z"/><path d="M272.419 57.222h-14.098V42.916h14.098v14.306z"/><path d="M258.321 57.222h-14.097V42.916h14.097v14.306zM216.029 57.222h-14.097V42.916h14.097v14.306zM201.932 57.222h-14.097V42.916h14.097v14.306zM173.741 57.222h-14.097V42.916h14.097v14.306zM159.643 57.222h-14.097V42.916h14.097v14.306zM117.35 57.222h-14.097V42.916h14.097v14.306zM103.253 57.222H89.155V42.916h14.098v14.306zM89.155 57.222H75.058V42.916h14.097v14.306zM18.669 57.222H4.57V42.916H18.67v14.306z"/><path d="M4.571 57.222H-9.526V42.916H4.57v14.306zM371.101 42.916h-14.097V28.611h14.097v14.305zM357.004 42.916h-14.098V28.611h14.098v14.305z"/><path d="M342.907 42.916H328.81V28.611h14.097v14.305zM230.127 42.916h-14.098V28.611h14.098v14.305zM216.029 42.916h-14.097V28.611h14.097v14.305zM201.932 42.916h-14.097V28.611h14.097v14.305zM173.741 42.916h-14.097V28.611h14.097v14.305zM159.643 42.916h-14.097V28.611h14.097v14.305zM145.546 42.916h-14.098V28.611h14.098v14.305zM32.765 42.916H18.668V28.611h14.097v14.305z"/><path d="M18.669 42.916H4.57V28.611H18.67v14.305z"/><path d="M4.571 42.916H-9.526V28.611H4.57v14.305zM357.004 28.61h-14.098V14.306h14.098v14.306z"/><path d="M342.907 28.61H328.81V14.306h14.097v14.306zM328.809 28.61h-14.097V14.306h14.097v14.306zM230.127 28.61h-14.098V14.306h14.098v14.306zM216.029 28.61h-14.097V14.306h14.097v14.306zM159.643 28.61h-14.097V14.306h14.097v14.306zM145.546 28.61h-14.098V14.306h14.098v14.306zM46.863 28.61H32.766V14.306h14.097v14.306zM32.765 28.61H18.668V14.306h14.097v14.306z"/><path d="M18.669 28.61H4.57V14.306H18.67v14.306zM342.907 14.305H328.81V0h14.097v14.305zM328.809 14.305h-14.097V0h14.097v14.305zM314.712 14.305h-14.098V0h14.098v14.305zM230.127 14.305h-14.098V0h14.098v14.305zM145.546 14.305h-14.098V0h14.098v14.305zM60.96 14.305H46.864V0h14.098v14.305zM46.863 14.305H32.766V0h14.097v14.305zM32.765 14.305H18.668V0h14.097v14.305z"/></g><defs><clipPath id="a"><path fill="#fff" transform="translate(-38)" d="M0 0h452v401H0z"/></clipPath></defs></svg>