<svg width="174" height="370" fill="none" xmlns="http://www.w3.org/2000/svg"><g clip-path="url(#a)" fill="#ECD979"><path d="M183.546 372.247h-14.098v-14.305h14.098v14.305zM84.864 372.248H70.766v-14.306h14.098v14.306zM70.766 372.247H56.668v-14.305h14.098v14.305zM56.668 372.247H42.571v-14.305h14.097v14.305zM183.546 357.942h-14.098v-14.306h14.098v14.306zM70.766 357.942H56.668v-14.306h14.098v14.306zM56.668 357.942H42.571v-14.306h14.097v14.306z"/><path d="M42.57 357.942H28.474v-14.306h14.098v14.306zM155.35 343.636h-14.097v-14.305h14.097v14.305zM141.253 343.636h-14.098v-14.305h14.098v14.305z"/><path d="M127.156 343.636h-14.098v-14.305h14.098v14.305zM56.668 343.636H42.571v-14.305h14.097v14.305z"/><path d="M42.57 343.636H28.474v-14.305h14.098v14.305zM28.473 343.636H14.376v-14.305h14.097v14.305zM169.448 329.331h-14.097v-14.305h14.097v14.305zM155.35 329.331h-14.097v-14.305h14.097v14.305zM141.253 329.331h-14.098v-14.305h14.098v14.305zM42.57 329.331H28.474v-14.305h14.098v14.305zM28.473 329.331H14.376v-14.305h14.097v14.305z"/><path d="M14.376 329.331H.278v-14.305h14.098v14.305zM183.546 315.025h-14.098V300.72h14.098v14.305z"/><path d="M169.448 315.025h-14.097V300.72h14.097v14.305zM155.35 315.025h-14.097V300.72h14.097v14.305zM28.473 315.025H14.376V300.72h14.097v14.305z"/><path d="M14.376 315.025H.278V300.72h14.098v14.305zM84.864 300.72H70.766v-14.305h14.098v14.305zM14.376 300.72H.278v-14.305h14.098v14.305zM98.96 286.415H84.864v-14.306h14.098v14.306zM84.864 286.415H70.766v-14.306h14.098v14.306zM183.546 272.109h-14.098v-14.306h14.098v14.306zM113.058 272.109H98.961v-14.306h14.097v14.306z"/><path d="M98.96 272.109H84.864v-14.306h14.098v14.306zM84.864 272.109H70.766v-14.306h14.098v14.306zM183.546 257.804h-14.098v-14.306h14.098v14.306z"/><path d="M169.448 257.804h-14.097v-14.306h14.097v14.306zM113.058 257.804H98.961v-14.306h14.097v14.306z"/><path d="M98.96 257.804H84.864v-14.306h14.098v14.306zM169.448 243.498h-14.097v-14.305h14.097v14.305zM155.35 243.498h-14.097v-14.305h14.097v14.305z"/><path d="M113.058 243.498H98.961v-14.305h14.097v14.305zM70.766 243.498H56.668v-14.305h14.098v14.305zM56.668 243.498H42.571v-14.305h14.097v14.305z"/><path d="M42.57 243.498H28.474v-14.305h14.098v14.305zM155.35 229.193h-14.097v-14.306h14.097v14.306zM141.253 229.193h-14.098v-14.306h14.098v14.306zM84.864 229.193H70.766v-14.306h14.098v14.306zM70.766 229.193H56.668v-14.306h14.098v14.306z"/><path d="M56.668 229.193H42.571v-14.306h14.097v14.306zM141.253 214.887h-14.098v-14.305h14.098v14.305z"/><path d="M127.156 214.887h-14.098v-14.305h14.098v14.305zM98.96 214.887H84.864v-14.305h14.098v14.305zM84.864 214.887H70.766v-14.305h14.098v14.305zM70.766 214.887H56.668v-14.305h14.098v14.305zM14.098 200.582H0v-14.306h14.098v14.306zM28.473 200.582H14.376v-14.306h14.097v14.306zM14.098 214.887H0v-14.305h14.098v14.305z"/><path d="M14.098 186.276H0v-14.305h14.098v14.305zM141.253 186.276h-14.098v-14.305h14.098v14.305z"/><path d="M127.156 186.276h-14.098v-14.305h14.098v14.305zM98.96 186.276H84.864v-14.305h14.098v14.305zM84.864 186.276H70.766v-14.305h14.098v14.305zM70.766 186.276H56.668v-14.305h14.098v14.305zM155.35 171.971h-14.097v-14.306h14.097v14.306zM141.253 171.971h-14.098v-14.305h14.098v14.305zM84.864 171.971H70.766v-14.305h14.098v14.305zM70.766 171.971H56.668v-14.306h14.098v14.306zM56.668 171.971H42.571v-14.306h14.097v14.306zM169.448 157.666h-14.097V143.36h14.097v14.306z"/><path d="M155.35 157.666h-14.097V143.36h14.097v14.306zM113.058 157.666H98.961V143.36h14.097v14.306zM70.766 157.666H56.668V143.36h14.098v14.306zM56.668 157.666H42.571V143.36h14.097v14.306z"/><path d="M42.57 157.666H28.474V143.36h14.098v14.306zM183.546 143.36h-14.098v-14.306h14.098v14.306z"/><path d="M169.448 143.36h-14.097v-14.306h14.097v14.306zM113.058 143.36H98.961v-14.306h14.097v14.306z"/><path d="M98.96 143.36H84.864v-14.306h14.098v14.306zM183.546 129.055h-14.098v-14.306h14.098v14.306zM113.058 129.054H98.961v-14.305h14.097v14.305z"/><path d="M98.96 129.054H84.864v-14.305h14.098v14.305zM84.864 129.054H70.766v-14.305h14.098v14.305zM98.96 114.749H84.864v-14.305h14.098v14.305zM84.864 114.749H70.766v-14.305h14.098v14.305z"/><path d="M84.864 100.444H70.766V86.138h14.098v14.306zM14.376 86.138H.278V71.833h14.098v14.305zM183.546 71.832h-14.098V57.527h14.098v14.305z"/><path d="M169.448 71.832h-14.097V57.527h14.097v14.305zM155.35 71.832h-14.097V57.527h14.097v14.305zM28.473 71.832H14.376V57.527h14.097v14.305z"/><path d="M14.376 71.832H.278V57.527h14.098v14.305zM169.448 57.527h-14.097V43.222h14.097v14.305zM155.35 57.527h-14.097V43.222h14.097v14.305zM141.253 57.527h-14.098V43.22h14.098v14.306zM42.57 57.527H28.474V43.222h14.098v14.305zM28.473 57.527H14.376V43.222h14.097v14.305z"/><path d="M14.376 57.527H.278V43.22h14.098v14.306zM155.35 43.222h-14.097V28.916h14.097v14.306zM141.253 43.222h-14.098V28.916h14.098v14.306z"/><path d="M127.156 43.222h-14.098V28.916h14.098v14.306zM56.668 43.222H42.571V28.916h14.097v14.306z"/><path d="M42.57 43.222H28.474V28.916h14.098v14.306zM28.473 43.222H14.376V28.916h14.097v14.306zM183.546 28.916h-14.098V14.611h14.098v14.305zM70.766 28.916H56.668V14.611h14.098v14.305zM56.668 28.916H42.571V14.611h14.097v14.305z"/><path d="M42.57 28.916H28.474V14.611h14.098v14.305zM183.546 14.61h-14.098V.306h14.098v14.306zM84.864 14.61H70.766V.306h14.098v14.306zM70.766 14.61H56.668V.306h14.098v14.306z"/><path d="M56.668 14.61H42.571V.306h14.097v14.306zM183.546.305h-14.098V-14h14.098V.305zM98.96.305H84.864V-14h14.098V.305zM84.864.305H70.766V-14h14.098V.305zM70.766.305H56.668V-14h14.098V.305zM14.376.305H.278V-14h14.098V.305z"/></g><defs><clipPath id="a"><path fill="#fff" transform="translate(0 -14)" d="M0 0h452v401H0z"/></clipPath></defs></svg>